<svg width="44" height="47" viewBox="0 0 44 47" fill="none" xmlns="http://www.w3.org/2000/svg">
<path d="M20.8469 39.633C20.7523 39.7306 20.6103 39.9258 20.4211 40.2186L20.1373 40.365C19.8534 40.5602 19.6878 40.7309 19.6405 40.8773C19.5932 41.0237 19.6169 41.1945 19.7115 41.3897L19.8534 41.8289C19.4749 41.8289 19.0492 41.7801 18.5761 41.6825C18.4815 41.2921 18.4815 40.9261 18.5761 40.5845C18.6707 40.243 18.9073 39.9258 19.2857 39.633L19.8534 39.0474C19.948 38.8523 19.9717 38.6571 19.9244 38.4619C19.8771 38.2667 19.7351 38.1447 19.4986 38.0959C19.2621 38.0471 18.9073 38.2179 18.4342 38.6083L18.1503 38.9011C17.6772 39.389 17.2515 39.7062 16.873 39.8526C16.4946 39.999 16.1634 40.0722 15.8796 40.0722H15.3119C15.028 40.1698 14.7915 40.3162 14.6022 40.5114L13.4669 39.9258C13.9399 39.4378 14.4603 39.145 15.028 39.0474L15.5957 38.9011C15.8796 38.9011 16.1161 38.8523 16.3053 38.7547C16.4946 38.6571 16.7784 38.4619 17.1569 38.1691L17.7246 37.7299C18.4815 37.0468 19.1911 36.8028 19.8534 36.998C20.3265 37.1932 20.705 37.5835 20.9888 38.1691C21.0834 38.3643 21.1307 38.5839 21.1307 38.8279C21.1307 39.0718 21.0361 39.3402 20.8469 39.633ZM41 9.47648C41 7.6222 40.3613 6.06069 39.084 4.79197C37.8067 3.52325 36.3165 2.88889 34.6134 2.88889C33.1942 2.88889 31.9169 3.30367 30.7815 4.13321C29.6461 4.96276 28.8892 6.06069 28.5107 7.42701C25.1046 5.76791 21.5565 5.30434 17.8665 6.03629C14.1765 6.76825 11.0068 8.50054 8.35761 11.2332C5.99222 13.5754 4.40741 16.3569 3.60317 19.5775C2.79894 22.7981 2.79894 25.9943 3.60317 29.1661C4.40741 32.3379 5.99222 35.1437 8.35761 37.5835C10.0607 39.3402 12.024 40.6821 14.2474 41.6093C16.4709 42.5364 18.7653 43 21.1307 43C23.4961 43 25.7669 42.5608 27.943 41.6825C30.1192 40.8041 32.1061 39.4378 33.9038 37.5835C36.4585 34.8509 38.0906 31.5815 38.8002 27.7753C39.5098 23.9692 39.1077 20.3094 37.5938 16.796C39.8646 13.4778 41 11.038 41 9.47648ZM34.6134 4.06002C36.0327 4.06002 37.2627 4.59678 38.3035 5.67032C39.3442 6.74385 39.8646 8.01257 39.8646 9.47648C39.8646 10.2572 39.4625 11.3796 38.6583 12.8435C37.854 14.3074 36.695 15.9665 35.1811 17.8208C34.9919 18.016 34.779 18.1135 34.5425 18.1135C34.3059 18.1135 34.0931 18.016 33.9038 17.8208C32.39 15.9665 31.2309 14.3074 30.4267 12.8435C29.6225 11.3796 29.2204 10.2572 29.2204 9.47648C29.2204 8.01257 29.7407 6.74385 30.7815 5.67032C31.8223 4.59678 33.0996 4.06002 34.6134 4.06002ZM21.1307 6.98783C23.4961 6.98783 25.8615 7.5246 28.2269 8.59814L28.085 9.47648C28.085 10.062 28.2742 10.794 28.6527 11.6723L27.6592 10.9404C27.1861 10.55 26.784 10.2572 26.4528 10.062C26.1217 9.86686 25.7432 9.79366 25.3175 9.84246C24.8917 9.89125 24.395 10.062 23.8273 10.3548L23.6853 10.5012C23.3069 10.794 22.9994 10.9404 22.7628 10.9404C22.5263 10.9404 22.1478 10.6964 21.6275 10.2084C21.1071 9.72047 20.5867 9.42768 20.0663 9.33009C19.5459 9.23249 19.0255 9.33009 18.5051 9.62287C17.9847 9.91565 17.6536 10.3304 17.5117 10.8672C17.3697 11.404 17.3934 11.9407 17.5826 12.4775C17.7719 13.0143 18.0557 13.429 18.4342 13.7218C18.8126 14.0146 19.1911 14.1854 19.5696 14.2342C19.948 14.283 20.4684 14.3074 21.1307 14.3074H22.2661C23.5907 14.6002 24.7971 15.6249 25.8852 17.3816C26.9732 19.1383 27.4227 20.5534 27.2334 21.6269C27.2334 21.9197 27.1152 22.1637 26.8786 22.3589C26.6421 22.5541 26.3346 22.7981 25.9561 23.0908C25.3884 23.4812 25.01 23.774 24.8207 23.9692C24.4423 24.3596 24.2057 24.7499 24.1111 25.1403C24.0165 25.9211 24.3477 26.7018 25.1046 27.4826L25.2465 27.7753C25.625 28.2633 25.8142 28.6049 25.8142 28.8001C25.7196 29.3856 25.483 29.9224 25.1046 30.4104C24.7261 30.8984 24.3003 31.1667 23.8273 31.2155C23.3542 31.2643 22.7392 31.2399 21.9823 31.1423H21.8403C21.2726 30.9471 20.6813 30.8496 20.0663 30.8496C19.4513 30.8496 18.8126 30.9959 18.1503 31.2887C17.6772 31.4839 17.0622 31.8255 16.3053 32.3135L16.0215 32.4599C15.3592 32.8502 14.8388 33.0942 14.4603 33.1918C13.798 33.4846 13.183 33.5822 12.6153 33.4846C12.0476 33.387 11.5745 33.0942 11.1961 32.6062C10.9122 32.2159 10.8413 31.8499 10.9832 31.5083C11.1251 31.1667 11.5272 30.7032 12.1895 30.1176L12.7572 29.532C13.4195 28.9465 13.9163 28.1901 14.2474 27.263C14.5786 26.3358 14.7442 25.3355 14.7442 24.262V22.5053C14.6495 21.3341 14.6732 20.529 14.8151 20.0898C14.9571 19.6507 15.1699 19.2847 15.4538 18.9919C15.8322 18.3087 16.0924 17.6988 16.2344 17.162C16.3763 16.6252 16.3526 15.7713 16.1634 14.6002L15.5957 11.2332C15.4065 10.4524 15.1936 9.89125 14.9571 9.54967C14.7205 9.2081 14.3657 8.89091 13.8926 8.59814C16.1634 7.5246 18.5761 6.98783 21.1307 6.98783ZM33.0523 36.7052C32.39 37.3883 31.6331 38.0227 30.7815 38.6083L30.6396 38.7547V38.3155C30.6396 38.1203 30.7815 37.7299 31.0654 37.1444L31.2073 36.998C31.6804 36.1196 31.8696 35.3389 31.775 34.6557C31.775 34.3629 31.704 33.997 31.5621 33.5578C31.4202 33.1186 31.3729 32.777 31.4202 32.533C31.4675 32.2891 31.7277 32.0695 32.2007 31.8743L32.7684 31.7279C33.3361 31.4351 33.7146 31.1911 33.9038 30.9959C34.4715 30.508 34.8027 29.8736 34.8973 29.0929C34.8973 28.6049 34.85 27.9217 34.7554 27.0434C34.6608 25.6771 34.8973 24.7987 35.465 24.4084C35.6542 24.3108 35.8908 24.262 36.1746 24.262H36.8842C37.2627 24.4572 37.5938 24.6523 37.8777 24.8475C37.8777 27.0922 37.4519 29.2393 36.6004 31.2887C35.7488 33.3382 34.5661 35.1437 33.0523 36.7052ZM37.8777 23.3836C37.8777 23.3836 37.7831 23.3836 37.5938 23.3836L37.31 23.2372C36.3638 22.8469 35.5123 22.8956 34.7554 23.3836C33.8092 23.9692 33.4308 25.2379 33.62 27.1898C33.7146 27.8729 33.7383 28.4585 33.6909 28.9465C33.6436 29.4344 33.4781 29.776 33.1942 29.9712C32.9104 30.1664 32.5792 30.3616 32.2007 30.5568L31.775 30.7032C30.9234 31.0935 30.4267 31.5571 30.2848 32.0939C30.1429 32.6306 30.2138 33.2406 30.4977 33.9238C30.5923 34.2165 30.6396 34.5337 30.6396 34.8753C30.6396 35.2169 30.474 35.7049 30.1429 36.3392C29.8117 36.9736 29.5988 37.5347 29.5042 38.0227C29.4096 38.5107 29.4569 38.9499 29.6461 39.3402C26.5238 41.1945 23.2123 41.9753 19.7115 41.6825C19.4276 41.6825 19.0492 41.6337 18.5761 41.5361H18.0084C17.1569 41.3409 16.4946 41.1457 16.0215 40.9505L13.4669 39.9258C11.8584 39.0474 10.4392 37.9739 9.20915 36.7052C7.03299 34.4605 5.54279 31.8499 4.73856 28.8733C3.93433 25.8967 3.91068 22.92 4.6676 19.9434C5.42453 16.9668 6.89107 14.3562 9.06723 12.1115C10.108 11.038 11.2907 10.1108 12.6153 9.33009L13.183 9.62287C13.5615 9.91565 13.8217 10.1352 13.9636 10.2816C14.1055 10.428 14.2238 10.794 14.3184 11.3796L15.028 14.8929C15.1226 15.8689 15.1463 16.5276 15.099 16.8692C15.0517 17.2108 14.8388 17.6744 14.4603 18.2599C14.2711 18.6503 14.0819 19.0407 13.8926 19.4311C13.6088 20.3094 13.5142 21.4805 13.6088 22.9444L13.7507 24.262C13.7507 26.1162 13.183 27.5802 12.0476 28.6537L11.338 29.2393C10.4865 29.9224 9.98973 30.5812 9.84781 31.2155C9.70588 31.8499 9.82415 32.5087 10.2026 33.1918C10.4865 33.5822 10.8413 33.8994 11.267 34.1433C11.6928 34.3873 12.1422 34.5581 12.6153 34.6557L13.0411 34.8021C14.0819 34.8021 15.2646 34.3629 16.5892 33.4846L18.5761 32.4599C19.1438 32.2647 19.6405 32.1671 20.0663 32.1671C20.4921 32.1671 20.9888 32.2159 21.5565 32.3135L21.8403 32.4599C22.6919 32.5574 23.4015 32.5574 23.9692 32.4599C24.7261 32.3623 25.3884 31.9719 25.9561 31.2887C26.5238 30.6056 26.855 29.8736 26.9496 29.0929C26.9496 28.7025 26.8786 28.3365 26.7367 27.9949C26.5948 27.6534 26.3819 27.2874 26.098 26.897L25.9561 26.7506C25.483 26.165 25.2702 25.7015 25.3175 25.3599C25.3648 25.0183 25.7669 24.6035 26.5238 24.1156C27.0915 23.8228 27.5173 23.5056 27.8011 23.164C28.085 22.8225 28.2742 22.4077 28.3688 21.9197C28.558 20.4558 28.0377 18.7967 26.8077 16.9424C25.3884 14.6978 23.9219 13.4778 22.408 13.2826L20.9888 13.1363C20.0426 13.1363 19.4513 13.0387 19.2148 12.8435C18.9782 12.6483 18.789 12.4043 18.6471 12.1115C18.5051 11.8187 18.4815 11.5504 18.5761 11.3064C18.6707 11.0624 18.8363 10.8672 19.0728 10.7208C19.3094 10.5744 19.5459 10.5256 19.7824 10.5744C20.019 10.6232 20.2792 10.794 20.563 11.0868L20.8469 11.2332C21.5092 11.8187 22.1005 12.1359 22.6209 12.1847C23.1413 12.2335 23.7326 12.0139 24.395 11.526L24.6788 11.3796C25.0573 11.1844 25.3648 11.0868 25.6013 11.0868C25.8378 11.0868 26.2873 11.3796 26.9496 11.9651L30.0719 14.6002L29.93 14.3074C30.8761 15.8689 31.9169 17.3328 33.0523 18.6991C33.3361 19.1871 33.8329 19.4311 34.5425 19.4311C35.2521 19.4311 35.7961 19.1871 36.1746 18.6991L36.7423 17.9672C37.4046 19.5287 37.7831 21.3341 37.8777 23.3836ZM37.5938 9.1837C37.5938 8.30535 37.2863 7.5734 36.6713 6.98783C36.0563 6.40227 35.3467 6.10949 34.5425 6.10949C33.7383 6.10949 33.0523 6.40227 32.4846 6.98783C31.9169 7.5734 31.6331 8.28096 31.6331 9.1105C31.6331 9.94005 31.9169 10.672 32.4846 11.3064C33.0523 11.9407 33.7383 12.2579 34.5425 12.2579C35.3467 12.2579 36.0563 11.9407 36.6713 11.3064C37.2863 10.672 37.5938 9.96445 37.5938 9.1837ZM32.7684 9.1837C32.7684 8.59814 32.934 8.13456 33.2652 7.79298C33.5963 7.4514 34.0221 7.28062 34.5425 7.28062C35.0629 7.28062 35.5123 7.4514 35.8908 7.79298C36.2692 8.13456 36.4585 8.57374 36.4585 9.1105C36.4585 9.64727 36.2692 10.1108 35.8908 10.5012C35.5123 10.8916 35.0629 11.0624 34.5425 11.0136C34.0221 10.9648 33.5963 10.7696 33.2652 10.428C32.934 10.0864 32.7684 9.67167 32.7684 9.1837Z" fill="#3D3D6B"/>
</svg>
