<svg width="44" height="47" viewBox="0 0 44 47" fill="none" xmlns="http://www.w3.org/2000/svg">
<path d="M41.9467 8H15.84C15.2533 8 14.7644 8.21905 14.3733 8.65714C13.9822 9.09524 13.7867 9.64286 13.7867 10.3V28.7C13.7867 29.3571 13.9822 29.9048 14.3733 30.3429C14.7644 30.781 15.2533 31 15.84 31H41.9467C42.5333 31 43.0222 30.781 43.4133 30.3429C43.8044 29.9048 44 29.3571 44 28.7V10.3C44 9.64286 43.8044 9.09524 43.4133 8.65714C43.0222 8.21905 42.5333 8 41.9467 8ZM15.84 9.47857H41.9467C42.3378 9.47857 42.5822 9.64286 42.68 9.97143L31.3867 19.6643C30.6044 20.3214 29.7733 20.65 28.8933 20.65C28.0133 20.65 27.1822 20.3214 26.4 19.6643L15.1067 9.97143C15.2044 9.64286 15.4489 9.47857 15.84 9.47857ZM42.68 27.2214L35.4933 20.9786C35.2978 20.869 35.1267 20.8417 34.98 20.8964C34.8333 20.9512 34.7111 21.0333 34.6133 21.1429C34.5156 21.2524 34.4667 21.4167 34.4667 21.6357C34.4667 21.8548 34.5644 22.019 34.76 22.1286L42.68 29.0286C42.5822 29.3571 42.3378 29.5214 41.9467 29.5214H15.84C15.4489 29.5214 15.2044 29.3571 15.1067 29.0286L23.0267 22.1286C23.2222 22.019 23.32 21.8548 23.32 21.6357C23.32 21.4167 23.2711 21.2524 23.1733 21.1429C23.0756 21.0333 22.9289 20.9512 22.7333 20.8964C22.5378 20.8417 22.3911 20.869 22.2933 20.9786L15.1067 27.2214V11.7786L25.6667 20.8143C26.6444 21.6905 27.72 22.1286 28.8933 22.1286C30.0667 22.1286 31.1422 21.6905 32.12 20.8143L42.68 11.7786V27.2214ZM11.7333 21.1429H3.37333C3.17778 21.1429 3.03111 21.1976 2.93333 21.3071C2.83556 21.4167 2.78667 21.581 2.78667 21.8C2.78667 22.019 2.83556 22.1833 2.93333 22.2929C3.03111 22.4024 3.17778 22.4571 3.37333 22.4571H11.7333C11.8311 22.4571 11.9533 22.4024 12.1 22.2929C12.2467 22.1833 12.32 22.019 12.32 21.8C12.32 21.581 12.2467 21.4167 12.1 21.3071C11.9533 21.1976 11.8311 21.1429 11.7333 21.1429ZM11.7333 24.9214H0.586667C0.488889 24.9214 0.366667 25.0036 0.22 25.1679C0.0733333 25.3321 0 25.4964 0 25.6607C0 25.825 0.0733333 25.9893 0.22 26.1536C0.366667 26.3179 0.488889 26.4 0.586667 26.4H11.7333C11.8311 26.4 11.9533 26.3179 12.1 26.1536C12.2467 25.9893 12.32 25.825 12.32 25.6607C12.32 25.4964 12.2467 25.3321 12.1 25.1679C11.9533 25.0036 11.8311 24.9214 11.7333 24.9214ZM11.7333 17.2H6.16C5.96444 17.2 5.81778 17.2821 5.72 17.4464C5.62222 17.6107 5.57333 17.775 5.57333 17.9393C5.57333 18.1036 5.62222 18.2679 5.72 18.4321C5.81778 18.5964 5.96444 18.6786 6.16 18.6786H11.7333C11.8311 18.6786 11.9533 18.5964 12.1 18.4321C12.2467 18.2679 12.32 18.1036 12.32 17.9393C12.32 17.775 12.2467 17.6107 12.1 17.4464C11.9533 17.2821 11.8311 17.2 11.7333 17.2ZM11.7333 13.4214H8.94667C8.75111 13.4214 8.58 13.4762 8.43333 13.5857C8.28667 13.6952 8.21333 13.8595 8.21333 14.0786C8.21333 14.2976 8.28667 14.4893 8.43333 14.6536C8.58 14.8179 8.75111 14.9 8.94667 14.9H11.7333C11.8311 14.9 11.9533 14.8179 12.1 14.6536C12.2467 14.4893 12.32 14.2976 12.32 14.0786C12.32 13.8595 12.2467 13.6952 12.1 13.5857C11.9533 13.4762 11.8311 13.4214 11.7333 13.4214Z" fill="#3D3D6B"/>
</svg>
