<svg width="15" height="15" viewBox="0 0 15 15" fill="none" xmlns="http://www.w3.org/2000/svg">
<g id="Icon">
<path id="Vector" d="M6.90002 13.3C6.83336 13.3 6.76669 13.2667 6.70002 13.2L1.00002 7.00005C0.900024 6.93338 0.875024 6.84172 0.925024 6.72505C0.975024 6.60838 1.06669 6.55005 1.20002 6.55005H3.95002C4.05002 6.55005 4.13336 6.58338 4.20002 6.65005L6.10002 8.85005C6.40002 8.18338 6.83336 7.48338 7.40002 6.75005C8.03336 5.95005 8.80002 5.16672 9.70002 4.40005C10.8334 3.43338 12.15 2.55005 13.65 1.75005C13.7167 1.71671 13.7834 1.70838 13.85 1.72505C13.9167 1.74172 13.975 1.78338 14.025 1.85005C14.075 1.91672 14.0917 1.98338 14.075 2.05005C14.0584 2.11672 14.0167 2.16672 13.95 2.20005C13.75 2.36672 13.4834 2.61672 13.15 2.95005C12.4834 3.58338 11.8334 4.28338 11.2 5.05005C10.4 6.08338 9.68336 7.18338 9.05002 8.35005C8.21669 9.88338 7.60002 11.45 7.20002 13.05C7.16669 13.2167 7.06669 13.3 6.90002 13.3Z" fill="#3D3D6B"/>
</g>
</svg>
