<svg width="40" height="42" viewBox="0 0 40 42" fill="none" xmlns="http://www.w3.org/2000/svg">
<g id="Icon">
<path id="Vector" d="M8.75 38.6666C8.88021 38.6666 9.00391 38.6406 9.12109 38.5885C9.23828 38.5364 9.36198 38.4843 9.49219 38.4323L31.9922 22.1823C32.1745 22.052 32.3047 21.8958 32.3828 21.7135C32.4609 21.5312 32.5 21.3489 32.5 21.1666C32.5 20.9843 32.4479 20.802 32.3438 20.6198C32.2396 20.4375 32.1224 20.2812 31.9922 20.151L9.49219 3.901C9.3099 3.79683 9.10156 3.71871 8.86719 3.66663C8.63281 3.61454 8.38542 3.65361 8.125 3.78381C7.94271 3.91402 7.79297 4.07027 7.67578 4.25256C7.55859 4.43486 7.5 4.65621 7.5 4.91663V37.4166C7.5 37.677 7.55859 37.8984 7.67578 38.0807C7.79297 38.263 7.94271 38.4192 8.125 38.5494C8.25521 38.6015 8.35938 38.6341 8.4375 38.6471C8.51562 38.6601 8.61979 38.6666 8.75 38.6666ZM10 7.41663L29.1406 21.1666L10 34.9166V7.41663Z" fill="#181818"/>
</g>
</svg>
