<svg width="38" height="38" viewBox="0 0 38 38" fill="none" xmlns="http://www.w3.org/2000/svg">
<path d="M34.9752 18.392C34.1645 18.392 33.4552 18.088 32.8472 17.48C32.2392 16.872 32.0365 16.112 32.2392 15.2C32.3405 13.8827 32.1885 12.616 31.7832 11.4C31.3779 10.184 30.7192 9.12 29.8072 8.208C28.8952 7.296 27.8312 6.63733 26.6152 6.232C25.3992 5.82667 24.1325 5.72533 22.8152 5.928C22.0045 6.02934 21.2952 5.82667 20.6872 5.32C20.0792 4.81334 19.7245 4.18 19.6232 3.42C19.5219 2.66 19.6992 1.95067 20.1552 1.292C20.6112 0.633335 21.2445 0.253334 22.0552 0.152C24.1832 -0.152 26.3112 0.0506668 28.4392 0.760002C30.5672 1.46933 32.3912 2.60933 33.9112 4.18C35.4312 5.75067 36.5459 7.57467 37.2552 9.652C37.9645 11.7293 38.1672 13.832 37.8632 15.96C37.7619 16.6693 37.4325 17.252 36.8752 17.708C36.3179 18.164 35.6845 18.392 34.9752 18.392ZM24.0312 4.256C25.2472 4.256 26.4632 4.50933 27.6792 5.016C28.8952 5.52267 29.9592 6.232 30.8712 7.144C31.9859 8.25867 32.7712 9.52533 33.2272 10.944C33.6832 12.3627 33.8099 13.832 33.6072 15.352C33.6072 15.7573 33.6832 16.0867 33.8352 16.34C33.9872 16.5933 34.2405 16.796 34.5952 16.948C34.9499 17.1 35.3299 17.0493 35.7352 16.796C36.1405 16.5427 36.3432 16.2133 36.3432 15.808C36.6472 13.8827 36.4952 11.9827 35.8872 10.108C35.2792 8.23333 34.2659 6.58667 32.8472 5.168C31.4285 3.74934 29.7819 2.736 27.9072 2.128C26.0325 1.52 24.1325 1.368 22.2072 1.672C21.9032 1.672 21.6245 1.824 21.3712 2.128C21.1179 2.432 21.0165 2.78667 21.0672 3.192C21.1179 3.59734 21.2952 3.90133 21.5992 4.104C21.9032 4.30667 22.2579 4.38267 22.6632 4.332C23.0685 4.28133 23.5245 4.256 24.0312 4.256ZM26.9192 18.392C26.6152 18.392 26.3112 18.3413 26.0072 18.24C25.5005 18.1387 25.0699 17.86 24.7152 17.404C24.3605 16.948 24.1579 16.4413 24.1072 15.884C24.0565 15.3267 23.8539 14.8707 23.4992 14.516C23.1445 14.1613 22.6885 13.9587 22.1312 13.908C21.5739 13.8573 21.0925 13.6547 20.6872 13.3C20.2819 12.9453 19.9779 12.5147 19.7752 12.008C19.3699 11.096 19.4965 10.2093 20.1552 9.348C20.8139 8.48667 21.6499 8.10667 22.6632 8.208L23.5752 8.36C25.0952 8.76534 26.4125 9.5 27.5272 10.564C28.6419 11.628 29.3512 12.92 29.6552 14.44L29.8072 15.352C29.9085 16.3653 29.5539 17.176 28.7432 17.784C28.2365 18.1893 27.6285 18.392 26.9192 18.392ZM26.4632 16.872C26.9699 17.0747 27.4259 17.024 27.8312 16.72C28.2365 16.416 28.3885 16.0107 28.2872 15.504L28.1352 14.744C27.8312 13.4267 27.1725 12.2867 26.1592 11.324C25.1459 10.3613 23.9299 9.82933 22.5112 9.728C22.0045 9.62667 21.5992 9.77867 21.2952 10.184C20.9912 10.5893 20.9405 11.0453 21.1432 11.552C21.3459 12.16 21.7512 12.464 22.3592 12.464C23.1699 12.5653 23.8792 12.92 24.4872 13.528C25.0952 14.136 25.4499 14.896 25.5512 15.808C25.6525 16.3147 25.9565 16.6693 26.4632 16.872ZM27.5272 38C26.0072 38 24.3352 37.5947 22.5112 36.784C18.6605 35.1627 14.5312 32.148 10.1232 27.74C5.7152 23.332 2.7512 19.2533 1.2312 15.504C0.3192 13.4773 -0.0861333 11.6027 0.0152 9.88C0.116533 8.15734 0.825867 6.63733 2.1432 5.32C2.64987 4.91467 3.3592 4.256 4.2712 3.344C5.4872 2.33067 6.34853 1.672 6.8552 1.368C7.36187 1.064 7.86853 0.937336 8.3752 0.988003C8.88187 1.03867 9.33787 1.26667 9.7432 1.672L14.1512 6.232C14.5565 6.63733 14.7339 7.144 14.6832 7.752C14.6325 8.36 14.3539 8.86667 13.8472 9.272L12.1752 10.64C11.5672 11.0453 11.1619 11.6533 10.9592 12.464C10.7565 13.2747 10.8072 13.984 11.1112 14.592C12.8339 17.5307 14.5565 19.8867 16.2792 21.66C18.0019 23.4333 20.3832 25.1813 23.4232 26.904C24.0312 27.208 24.7405 27.2587 25.5512 27.056C26.3619 26.8533 26.9699 26.3973 27.3752 25.688L28.7432 24.016C29.1485 23.6107 29.6299 23.3827 30.1872 23.332C30.7445 23.2813 31.2765 23.4587 31.7832 23.864L36.3432 28.272C36.6472 28.576 36.8499 28.9813 36.9512 29.488C37.0525 29.9947 36.9512 30.5013 36.6472 31.008C36.3432 31.5147 35.6845 32.4267 34.6712 33.744C33.7592 34.656 33.0499 35.3653 32.5432 35.872C31.3272 37.088 29.8072 37.7467 27.9832 37.848L27.5272 38ZM8.0712 2.432C7.96987 2.432 7.86853 2.48267 7.7672 2.584C7.26053 2.78667 6.44987 3.39467 5.3352 4.408C4.32187 5.21867 3.61253 5.87733 3.2072 6.384C1.18053 8.41067 0.952533 11.248 2.5232 14.896C4.09387 18.544 7.0072 22.496 11.2632 26.752C15.5192 31.008 19.4712 33.9213 23.1192 35.492C26.7672 37.0627 29.6045 36.8347 31.6312 34.808C32.0365 34.4027 32.6952 33.6933 33.6072 32.68C34.5192 31.5653 35.1272 30.7547 35.4312 30.248C35.6339 29.944 35.5832 29.64 35.2792 29.336L30.8712 24.928C30.6685 24.8267 30.4912 24.776 30.3392 24.776C30.1872 24.776 30.0605 24.8773 29.9592 25.08L28.5912 26.6C27.8819 27.512 26.9445 28.1453 25.7792 28.5C24.6139 28.8547 23.5752 28.728 22.6632 28.12C19.6232 26.3973 17.1659 24.5987 15.2912 22.724C13.4165 20.8493 11.6179 18.392 9.8952 15.352C9.2872 14.44 9.16053 13.4013 9.5152 12.236C9.86987 11.0707 10.5032 10.1333 11.4152 9.424L12.9352 8.056C13.1379 7.95467 13.2392 7.828 13.2392 7.676C13.2392 7.524 13.1885 7.34667 13.0872 7.144L8.5272 2.584C8.42587 2.48267 8.27387 2.432 8.0712 2.432ZM33.3032 34.808C33.1005 34.808 32.9485 34.7067 32.8472 34.504L26.1592 27.816C25.9565 27.6133 25.8805 27.3853 25.9312 27.132C25.9819 26.8787 26.1592 26.7267 26.4632 26.676C26.7672 26.6253 27.0205 26.7013 27.2232 26.904L33.9112 33.592C34.1139 33.7947 34.1392 34.048 33.9872 34.352C33.8352 34.656 33.6072 34.808 33.3032 34.808ZM10.6552 12.008C10.4525 12.008 10.2499 11.9573 10.0472 11.856L3.3592 5.168C3.25787 5.06667 3.2072 4.91467 3.2072 4.712C3.2072 4.50933 3.2832 4.332 3.4352 4.18C3.5872 4.028 3.76453 3.952 3.9672 3.952C4.16987 3.952 4.32187 4.00267 4.4232 4.104L11.1112 10.792C11.3139 11.096 11.3645 11.3747 11.2632 11.628C11.1619 11.8813 10.9592 12.008 10.6552 12.008Z" fill="#3D3D6B"/>
</svg>
